<svg id="Layer_1" data-name="Layer 1" xmlns="http://www.w3.org/2000/svg" xmlns:xlink="http://www.w3.org/1999/xlink" viewBox="0 0 1080 1080"><defs><style>.cls-1{fill:#fff;}.cls-2,.cls-4{fill:none;}.cls-2{stroke-miterlimit:10;stroke-width:29.4px;stroke:url(#linear-gradient);}.cls-3{fill:url(#linear-gradient-2);}.cls-4{stroke:#fff;stroke-linecap:round;stroke-linejoin:round;stroke-width:26.73px;}</style><linearGradient id="linear-gradient" x1="25.3" y1="540" x2="1054.7" y2="540" gradientUnits="userSpaceOnUse"><stop offset="0" stop-color="#ee5a37"/><stop offset="0.04" stop-color="#ee563c"/><stop offset="0.18" stop-color="#ec484e"/><stop offset="0.29" stop-color="#ec4354"/><stop offset="0.61" stop-color="#ce264a"/><stop offset="0.8" stop-color="#c5223c"/><stop offset="1" stop-color="#bf2033"/></linearGradient><linearGradient id="linear-gradient-2" x1="705.62" y1="181.58" x2="308.16" y2="908.25" gradientUnits="userSpaceOnUse"><stop offset="0.04" stop-color="#ee5a37"/><stop offset="0.07" stop-color="#ee563c"/><stop offset="0.2" stop-color="#ec484e"/><stop offset="0.29" stop-color="#ec4354"/><stop offset="0.58" stop-color="#ce264a"/><stop offset="0.73" stop-color="#c5223c"/><stop offset="0.89" stop-color="#bf2033"/></linearGradient></defs><title>191126_Web_Badges_Healthy</title><circle class="cls-1" cx="540" cy="540" r="500"/><circle class="cls-2" cx="540" cy="540" r="500"/><path class="cls-3" d="M537.4,855.58c-6.66-6.25-13.14-12.36-19.65-18.44-43.32-40.48-88.35-79-133.06-117.92-25.14-21.88-50.09-44-72.69-68.54-20.23-22-37.59-45.86-49.07-73.67-8.28-20.07-13.15-41-15.64-62.5a319.13,319.13,0,0,1-2.07-49.34c2.53-62.47,40.83-115.74,98.78-134.93,62.25-20.61,117-6.18,164,39.06a180.28,180.28,0,0,1,27.71,35c.47.75,1,1.48,1.72,2.59.83-1.3,1.5-2.33,2.16-3.37,17.61-27.87,40.29-50.38,69.81-65.53a149.9,149.9,0,0,1,81.88-16.2c35.24,2.81,66.17,15.72,92,40,24.13,22.72,38.49,50.78,44.22,83.35,3.07,17.45,2.53,35,1.51,52.56a260.09,260.09,0,0,1-10,59c-8.5,28.7-23,54.1-41.84,77.22-19.42,23.9-41.67,45-64.68,65.34-34.39,30.37-69.22,60.25-103.52,90.72C585.5,811,562.6,832.46,539.44,853.68Z"/><polyline class="cls-4" points="242.41 594.97 432.5 594.97 478.65 500.9 562.66 685.49 628.92 544.09 653.17 594.97 837.59 594.97"/></svg>