<svg id="Layer_1" data-name="Layer 1" xmlns="http://www.w3.org/2000/svg" xmlns:xlink="http://www.w3.org/1999/xlink" viewBox="0 0 1080 1080"><defs><style>.cls-1{fill:#fff;}.cls-2,.cls-3{fill-rule:evenodd;}.cls-2{fill:url(#linear-gradient);}.cls-3{fill:url(#linear-gradient-2);}.cls-4{fill:url(#linear-gradient-3);}.cls-5,.cls-6,.cls-7{fill:none;stroke-miterlimit:10;}.cls-5,.cls-6{stroke-linecap:round;stroke-width:37.42px;}.cls-5{stroke:url(#linear-gradient-4);}.cls-6{stroke:url(#linear-gradient-5);}.cls-7{stroke-width:29.4px;stroke:url(#linear-gradient-6);}</style><linearGradient id="linear-gradient" x1="760.72" y1="257.06" x2="110.14" y2="1099.55" gradientUnits="userSpaceOnUse"><stop offset="0" stop-color="#ee5a37"/><stop offset="0.03" stop-color="#ee563c"/><stop offset="0.14" stop-color="#ec484e"/><stop offset="0.22" stop-color="#ec4354"/><stop offset="0.55" stop-color="#ce264a"/><stop offset="0.7" stop-color="#c5223c"/><stop offset="0.86" stop-color="#bf2033"/></linearGradient><linearGradient id="linear-gradient-2" x1="601.14" y1="133.83" x2="-49.44" y2="976.33" xlink:href="#linear-gradient"/><linearGradient id="linear-gradient-3" x1="728.32" y1="538.85" x2="291.61" y2="1065.9" xlink:href="#linear-gradient"/><linearGradient id="linear-gradient-4" x1="8903.31" y1="18851.23" x2="8704.24" y2="18975.22" gradientTransform="translate(9069.06 19727.94) rotate(180)" gradientUnits="userSpaceOnUse"><stop offset="0" stop-color="#f05a37"/><stop offset="0.02" stop-color="#f0563b"/><stop offset="0.14" stop-color="#ee474d"/><stop offset="0.22" stop-color="#ee4253"/><stop offset="0.57" stop-color="#e43850"/><stop offset="1" stop-color="#d1264a"/></linearGradient><linearGradient id="linear-gradient-5" x1="8393.35" y1="19369.64" x2="8149.48" y2="19521.53" gradientTransform="translate(9069.06 19727.94) rotate(180)" gradientUnits="userSpaceOnUse"><stop offset="0.32" stop-color="#ce264a"/><stop offset="0.64" stop-color="#c92442"/><stop offset="1" stop-color="#bf2033"/></linearGradient><linearGradient id="linear-gradient-6" x1="25.3" y1="540" x2="1054.7" y2="540" gradientUnits="userSpaceOnUse"><stop offset="0" stop-color="#ee5a37"/><stop offset="0.04" stop-color="#ee563c"/><stop offset="0.18" stop-color="#ec484e"/><stop offset="0.29" stop-color="#ec4354"/><stop offset="0.61" stop-color="#ce264a"/><stop offset="0.8" stop-color="#c5223c"/><stop offset="1" stop-color="#bf2033"/></linearGradient></defs><title>191121_Web_Badges_Alcohol_Free</title><circle class="cls-1" cx="540" cy="540" r="500"/><path class="cls-2" d="M585.29,434c-5.75-28-33-39.5-39.52-51.2-4.89-8.86-4.59-63.34-4.29-101.92H486.2c1.15,38.6,2.7,93.59-2,102.59-6.22,11.85-33.26,23.92-38.39,52.06s4.69,343.29,5.84,365,5.82,35.27,68.32,34.58S586.83,820.76,587.5,799,591,462,585.29,434Z"/><path class="cls-3" d="M541.62,260.88c0-4,0-7.47,0-10.34-.32-29-10.73-30.33-28.42-30.14s-28.06,1.77-27.74,30.76c0,2.73.1,6,.19,9.72Z"/><path class="cls-4" d="M724,567.3l4-5.06a7.94,7.94,0,0,0-4-12.52c-87.8-25.29-166.42-8.47-195.53-.3A8.63,8.63,0,0,0,523.92,563l1.57,2.07c26.8,34.2,91.19,120.68,91.74,142.66,1.31,53.07-.84,84.79-1.46,92.59-8,2.71-39.34,13.37-47,17.74-3.17,1.8-2.93,4.19-2.68,5.13,2.66,10,59.12,10.65,59.69,10.65s57-.63,59.69-10.65c.25-.94.49-3.33-2.67-5.13-7.65-4.37-38.94-15-47-17.74-.62-7.81-2.76-39.56-1.45-92.59C634.9,685.7,697.2,601.5,724,567.3Z"/><line class="cls-5" x1="193.74" y1="886.26" x2="336.83" y2="743.17"/><line class="cls-6" x1="706.94" y1="373.06" x2="888.35" y2="191.65"/><circle class="cls-7" cx="540" cy="540" r="500"/></svg>