<svg id="Layer_1" data-name="Layer 1" xmlns="http://www.w3.org/2000/svg" xmlns:xlink="http://www.w3.org/1999/xlink" viewBox="0 0 1080 1080"><defs><style>.cls-1{fill:#fff;}.cls-2{fill-rule:evenodd;fill:url(#linear-gradient);}.cls-3,.cls-4,.cls-5{fill:none;stroke-miterlimit:10;}.cls-3,.cls-4{stroke-linecap:round;stroke-width:37.42px;}.cls-3{stroke:url(#linear-gradient-2);}.cls-4{stroke:url(#linear-gradient-3);}.cls-5{stroke-width:29.4px;stroke:url(#linear-gradient-4);}</style><linearGradient id="linear-gradient" x1="690.91" y1="317.63" x2="283.46" y2="1008.14" gradientUnits="userSpaceOnUse"><stop offset="0" stop-color="#ee5a37"/><stop offset="0.03" stop-color="#ee563c"/><stop offset="0.14" stop-color="#ec484e"/><stop offset="0.22" stop-color="#ec4354"/><stop offset="0.55" stop-color="#ce264a"/><stop offset="0.7" stop-color="#c5223c"/><stop offset="0.86" stop-color="#bf2033"/></linearGradient><linearGradient id="linear-gradient-2" x1="-2095.65" y1="18850.19" x2="-2294.71" y2="18974.18" gradientTransform="translate(-1930.94 19727.94) rotate(180)" gradientUnits="userSpaceOnUse"><stop offset="0" stop-color="#f05a37"/><stop offset="0.02" stop-color="#f0563b"/><stop offset="0.14" stop-color="#ee474d"/><stop offset="0.22" stop-color="#ee4253"/><stop offset="0.57" stop-color="#e43850"/><stop offset="1" stop-color="#d1264a"/></linearGradient><linearGradient id="linear-gradient-3" x1="-2644.9" y1="19399.9" x2="-2846.41" y2="19525.41" gradientTransform="translate(-1930.94 19727.94) rotate(180)" gradientUnits="userSpaceOnUse"><stop offset="0.32" stop-color="#ce264a"/><stop offset="0.64" stop-color="#c92442"/><stop offset="1" stop-color="#bf2033"/></linearGradient><linearGradient id="linear-gradient-4" x1="25.3" y1="540" x2="1054.7" y2="540" gradientUnits="userSpaceOnUse"><stop offset="0" stop-color="#ee5a37"/><stop offset="0.04" stop-color="#ee563c"/><stop offset="0.18" stop-color="#ec484e"/><stop offset="0.29" stop-color="#ec4354"/><stop offset="0.61" stop-color="#ce264a"/><stop offset="0.8" stop-color="#c5223c"/><stop offset="1" stop-color="#bf2033"/></linearGradient></defs><title>191121_Web_Badges</title><circle class="cls-1" cx="540" cy="540" r="500"/><path class="cls-2" d="M540.78,232.64c-35.55-.09-58.78,2-55.73,19.57s3.24,58.24-9.93,85.34-53.18,71.61-58,127.74,2,304.09,10.33,335S454,847.13,539.13,847.36s103.44-15.63,111.94-46.48S667.73,522.1,663.2,466s-44.29-100.88-57.32-128-12.62-67.84-9.47-85.39-20.07-19.77-55.63-19.87Z"/><line class="cls-3" x1="192.7" y1="887.3" x2="335.79" y2="744.21"/><line class="cls-4" x1="742.13" y1="337.87" x2="887.3" y2="192.7"/><circle class="cls-5" cx="540" cy="540" r="500"/></svg>