<svg id="Layer_1" data-name="Layer 1" xmlns="http://www.w3.org/2000/svg" xmlns:xlink="http://www.w3.org/1999/xlink" viewBox="0 0 1080 1080"><defs><style>.cls-1{fill:#fff;}.cls-2{fill:url(#linear-gradient);}.cls-3,.cls-4,.cls-5{fill:none;stroke-miterlimit:10;}.cls-3,.cls-4{stroke-linecap:round;stroke-width:37.42px;}.cls-3{stroke:url(#linear-gradient-2);}.cls-4{stroke:url(#linear-gradient-3);}.cls-5{stroke-width:29.4px;stroke:url(#linear-gradient-4);}</style><linearGradient id="linear-gradient" x1="834.98" y1="390.36" x2="10.53" y2="830.66" gradientUnits="userSpaceOnUse"><stop offset="0" stop-color="#ee5a37"/><stop offset="0.04" stop-color="#ee563c"/><stop offset="0.18" stop-color="#ec484e"/><stop offset="0.29" stop-color="#ec4354"/><stop offset="0.65" stop-color="#ce264a"/><stop offset="0.83" stop-color="#c5223c"/><stop offset="1" stop-color="#bf2033"/></linearGradient><linearGradient id="linear-gradient-2" x1="2312.48" y1="21089.4" x2="2095.44" y2="21224.58" gradientTransform="translate(2475.89 21965.07) rotate(180)" gradientUnits="userSpaceOnUse"><stop offset="0" stop-color="#f05a37"/><stop offset="0.02" stop-color="#f0563b"/><stop offset="0.14" stop-color="#ee474d"/><stop offset="0.22" stop-color="#ee4253"/><stop offset="0.57" stop-color="#e43850"/><stop offset="1" stop-color="#d1264a"/></linearGradient><linearGradient id="linear-gradient-3" x1="1761.93" y1="21637.03" x2="1560.42" y2="21762.53" gradientTransform="translate(2475.89 21965.07) rotate(180)" gradientUnits="userSpaceOnUse"><stop offset="0.32" stop-color="#ce264a"/><stop offset="0.64" stop-color="#c92442"/><stop offset="1" stop-color="#bf2033"/></linearGradient><linearGradient id="linear-gradient-4" x1="25.3" y1="540" x2="1054.7" y2="540" gradientUnits="userSpaceOnUse"><stop offset="0" stop-color="#ee5a37"/><stop offset="0.04" stop-color="#ee563c"/><stop offset="0.18" stop-color="#ec484e"/><stop offset="0.29" stop-color="#ec4354"/><stop offset="0.61" stop-color="#ce264a"/><stop offset="0.8" stop-color="#c5223c"/><stop offset="1" stop-color="#bf2033"/></linearGradient></defs><title>191121_Web_Badges_PorkFree</title><circle class="cls-1" cx="540" cy="540" r="500"/><path class="cls-2" d="M760.11,699H726.94c26.54-34.36,30.6-67.54,2.39-102.62-2.92,7.08-5.89,12.89-7.75,19-6,19.7-11.25,39.61-17.59,59.19-.89,2.74-6.07,5.44-9.47,5.74-6.17.53-12.49-.77-20.36-1.44,6.39-17.54,17.2-33.65,16.55-49.28S678,598.81,670.34,582.17c-34.43,18.29-71.7,15.14-109.09,11.43-9.57-1-19.23-1-28.85-1.21-30.63-.58-34.7,3.48-35.4,34.82-.06,2.67.15,5.36,0,8-1.24,21.11,9.23,44-12.2,63.1H461.94c19.06-22.33,15.41-44.1.57-66.34-.93,6.45-.95,13.19-3,19.28-3.74,11.29-7.21,23.17-13.77,32.78-2.56,3.74-13.17,2-22,2.91,5.83-13.64,10.8-24,14.64-34.79,1.73-4.88,1.6-10.55,1.7-15.88.69-36.53-1.18-39.35-37.24-41.65-47.19-3-91.29-15.17-132.91-38-19.17-10.49-27.07-24.26-22.82-46,23,4.62,39.11-8.16,54.54-22.45,7.36-6.82,8-13.86,2.6-22.76-8.77-14.4-16.39-29.51-24.49-44.31l3.31-4.73,43.13,10.52-11.77-14.48q1.59-2.47,3.2-4.94c10.25,5.93,21.57,10.6,30.46,18.14s16.59,8.33,27.36,4.73c81.23-27.24,164.37-44,250.42-37.2A556.73,556.73,0,0,1,728.2,410.94c29.74,8.13,55.19,25.54,67.33,56.76a12.14,12.14,0,0,0,6.31,6c17.5,7,17.74,7.56,5.47,27.06v-16l-4.35-.54c-.64,3.81-1.87,7.63-1.83,11.43.31,28.08-3.53,54-27.34,73.76-4.45,3.69-5.87,16.86-2.87,22.63,9,17.21,7.36,32.8,1.53,50.41S764.33,678.94,760.11,699Z"/><line class="cls-3" x1="192.7" y1="887.3" x2="351.16" y2="728.84"/><line class="cls-4" x1="742.13" y1="337.87" x2="887.3" y2="192.7"/><circle class="cls-5" cx="540" cy="540" r="500"/></svg>